<svg xmlns="http://www.w3.org/2000/svg" width="87.474" height="27.758" viewBox="0 0 87.474 27.758">
  <path id="Path_1" data-name="Path 1" d="M18.793-2.108,4.516-9.28v-.979l14.277-8v2.49L8.135-9.861v.066L18.793-4.582Zm17.963-21.7L25.334,3.951h-2.54L34.183-23.807ZM52.245,0H39.628V-23.807H51.714v2.523h-9.3v7.919h8.6v2.507h-8.6v8.334h9.828Zm4.582,0V-23.807H63.6A7.4,7.4,0,0,1,68.5-22.3a4.883,4.883,0,0,1,1.81,3.935,5.79,5.79,0,0,1-1.1,3.52,5.909,5.909,0,0,1-3.021,2.125v.066a6.057,6.057,0,0,1,3.852,1.818A5.591,5.591,0,0,1,71.486-6.84a6.224,6.224,0,0,1-2.191,4.947A8.156,8.156,0,0,1,63.767,0Zm2.789-21.283V-13.6h2.855a5.422,5.422,0,0,0,3.6-1.1,3.844,3.844,0,0,0,1.312-3.113q0-3.47-4.565-3.47Zm0,10.193v8.566H63.4a5.671,5.671,0,0,0,3.81-1.162,3.981,3.981,0,0,0,1.353-3.187q0-4.217-5.744-4.217ZM91.989-9.28,77.712-2.108V-4.582L88.4-9.762v-.1l-10.691-5.91v-2.49l14.277,8Z" transform="translate(-4.516 23.807)" fill="#fff"/>
</svg>
